HIERARCHY
ROOT Hips
{
	OFFSET	0.00	0.00	0.00
	CHANNELS 6 Xposition Yposition Zposition Zrotation Xrotation Yrotation
	JOINT LeftUpLeg
	{
		OFFSET	 0.126116	-0.014019	-0.065224
		CHANNELS 3 Zrotation Xrotation Yrotation
		JOINT LeftLeg
		{
			OFFSET	 0.000000	 0.000000	 0.569914
			CHANNELS 3 Zrotation Xrotation Yrotation
			JOINT LeftFoot
			{
				OFFSET	 0.000000	 0.000000	 0.544423
				CHANNELS 3 Zrotation Xrotation Yrotation
				JOINT LeftToeBase
				{
					OFFSET	 0.000000	 0.000000	 0.207117
					CHANNELS 3 Zrotation Xrotation Yrotation
					End Site
					{
						OFFSET	 0.000000	 0.000000	 0.207117
					}
				}
			}
		}
	}
	JOINT RightUpLeg
	{
		OFFSET	-0.124023	-0.008373	-0.065224
		CHANNELS 3 Zrotation Xrotation Yrotation
		JOINT RightLeg
		{
			OFFSET	 0.000000	 0.000000	 0.570047
			CHANNELS 3 Zrotation Xrotation Yrotation
			JOINT RightFoot
			{
				OFFSET	 0.000000	 0.000000	 0.544354
				CHANNELS 3 Zrotation Xrotation Yrotation
				JOINT RightToeBase
				{
					OFFSET	 0.000000	 0.000000	 0.207540
					CHANNELS 3 Zrotation Xrotation Yrotation
					End Site
					{
						OFFSET	 0.000000	 0.000000	 0.207540
					}
				}
			}
		}
	}
	JOINT Spine
	{
		OFFSET	 0.000184	-0.007763	 0.117403
		CHANNELS 3 Zrotation Xrotation Yrotation
		JOINT Spine1
		{
			OFFSET	 0.000000	 0.000000	 0.137269
			CHANNELS 3 Zrotation Xrotation Yrotation
			JOINT Spine2
			{
				OFFSET	 0.000000	 0.000000	 0.156879
				CHANNELS 3 Zrotation Xrotation Yrotation
				JOINT LeftShoulder
				{
					OFFSET	 0.080501	-0.002496	 0.160144
					CHANNELS 3 Zrotation Xrotation Yrotation
					JOINT LeftArm
					{
						OFFSET	 0.000000	 0.000000	 0.164363
						CHANNELS 3 Zrotation Xrotation Yrotation
						JOINT LeftForeArm
						{
							OFFSET	 0.000000	 0.000000	 0.364576
							CHANNELS 3 Zrotation Xrotation Yrotation
							JOINT LeftHand
							{
								OFFSET	 0.000000	 0.000000	 0.360812
								CHANNELS 3 Zrotation Xrotation Yrotation
								JOINT LeftHandIndex1
								{
									OFFSET	 0.000000	 0.000000	 0.086006
									CHANNELS 3 Zrotation Xrotation Yrotation
									JOINT LeftHandIndex2
									{
										OFFSET	 0.000000	 0.000000	 0.047236
										CHANNELS 3 Zrotation Xrotation Yrotation
										JOINT LeftHandIndex3
										{
											OFFSET	-0.004284	-0.000551	 0.038166
											CHANNELS 3 Zrotation Xrotation Yrotation
											End Site
											{
												OFFSET	-0.004284	-0.000551	 0.038166
											}
										}
									}
								}
							}
						}
					}
				}
				JOINT Neck
				{
					OFFSET	 0.000000	 0.000000	 0.176489
					CHANNELS 3 Zrotation Xrotation Yrotation
					JOINT Head
					{
						OFFSET	 0.000000	-0.001747	 0.077940
						CHANNELS 3 Zrotation Xrotation Yrotation
						End Site
						{
							OFFSET	 0.000000	-0.001747	 0.077940
						}
					}
				}
				JOINT RightShoulder
				{
					OFFSET	-0.080363	 0.000306	 0.159706
					CHANNELS 3 Zrotation Xrotation Yrotation
					JOINT RightArm
					{
						OFFSET	 0.000000	 0.000000	 0.164196
						CHANNELS 3 Zrotation Xrotation Yrotation
						JOINT RightForeArm
						{
							OFFSET	 0.000000	 0.000000	 0.365611
							CHANNELS 3 Zrotation Xrotation Yrotation
							JOINT RightHand
							{
								OFFSET	 0.000000	 0.000000	 0.360648
								CHANNELS 3 Zrotation Xrotation Yrotation
								JOINT RightHandIndex1
								{
									OFFSET	 0.000000	 0.000000	 0.069977
									CHANNELS 3 Zrotation Xrotation Yrotation
									JOINT RightHandIndex2
									{
										OFFSET	 0.000000	 0.000000	 0.052305
										CHANNELS 3 Zrotation Xrotation Yrotation
										JOINT RightHandIndex3
										{
											OFFSET	 0.009002	-0.000782	 0.042196
											CHANNELS 3 Zrotation Xrotation Yrotation
											End Site
											{
												OFFSET	 0.009002	-0.000782	 0.042196
											}
										}
									}
								}
							}
						}
					}
				}
			}
		}
	}
}
MOTION
Frames:    6
Frame Time: 0.03333334
 0.000269	 0.047244	 1.275270	-0.062564	 2.917915	 0.753718	 13.575020	-6.829133	 177.191600	 2.177273	-12.743810	 0.572547	-0.027512	 70.162280	-0.053013	-2.385833	 28.452750	 0.000004	-6.164882	-5.668408	-177.844700	-0.795887	-10.121930	 0.765983	 4.729364	 68.721740	 1.627406	 2.384659	 28.388700	-0.000001	-4.510602	 7.658096	-0.173264	 0.850503	-6.181817	 0.274574	-2.101605	 10.484960	 0.572666	-91.047490	 68.969160	-177.552900	-6.827520	 1.125171	-28.454060	 22.093950	 0.037004	-2.450981	-10.184180	-24.675790	-5.421284	-2.027600	 6.559038	 9.033609	-5.188889	 0.308190	 3.541030	-5.234859	 0.342567	 0.430617	 4.629087	 19.925520	-7.368060	-7.235397	-14.771420	 1.737950	 88.848180	 67.557660	 177.037400	 8.725801	 10.150430	 7.526690	-22.196700	-8.901370	 33.231240	 7.566895	-24.282930	 6.969846	 1.803333	 3.979147	-15.098590	 4.898592	 3.004813	-9.310344	 5.224449	 0.395017	 2.014677
 0.000026	 0.050292	 1.274798	-0.028218	 3.359843	 0.818025	 13.656080	-7.626834	 177.244400	 2.160637	-13.031620	 0.581501	 0.476391	 70.121360	-0.590710	-2.385833	 28.452750	 0.000004	-6.370740	-6.353705	-177.998900	-0.788782	-10.237510	 0.775902	 4.266094	 68.616790	 2.138181	 2.384659	 28.388700	-0.000001	-6.614815	 8.012313	-0.194070	 0.843963	-6.831554	 0.268401	-2.135115	 11.608140	 0.633103	-90.974820	 68.469750	-177.403700	-6.118959	 1.785833	-30.180930	 20.465470	 0.160471	-3.157381	-10.228380	-26.001840	-6.081972	-2.027600	 6.559038	 9.033609	-5.188889	 0.308190	 3.541030	-5.234859	 0.342567	 0.430617	 4.700428	 21.370080	-7.802393	-7.122022	-15.833260	 1.678182	 88.724230	 66.694310	 176.819400	 7.828163	 11.162490	 8.628275	-21.089870	-8.088962	 34.051050	 7.331290	-25.250880	 7.083198	 1.803333	 3.979147	-15.098590	 4.898592	 3.004813	-9.310344	 5.224449	 0.395017	 2.014677
-0.000658	 0.058347	 1.273158	 0.065146	 4.444201	 0.962362	 13.777390	-9.978241	 177.388600	 2.179868	-14.492170	 0.653226	 1.763614	 70.406140	-2.037336	-2.385833	 28.452750	 0.000004	-6.842566	-8.369311	-178.413700	-0.773440	-11.141620	 0.846571	 3.218821	 68.627720	 3.314782	 2.384659	 28.388700	-0.000001	-11.155160	 8.812665	-0.243986	 0.872393	-7.408296	 0.223644	-2.285696	 13.592330	 0.783838	-90.829150	 67.468440	-177.127100	-4.665317	 3.471104	-34.466320	 16.794990	 0.556716	-4.721673	-10.677390	-28.954950	-7.874280	-2.027600	 6.559038	 9.033609	-5.188889	 0.308190	 3.541030	-5.234859	 0.342567	 0.430617	 4.763558	 24.432650	-8.683680	-6.819549	-18.176260	 1.564015	 88.443050	 64.759510	 176.367600	 5.596833	 13.639230	 11.698120	-18.649320	-6.064335	 35.518990	 6.923485	-27.421100	 7.528756	 1.803333	 3.979147	-15.098590	 4.898592	 3.004813	-9.310344	 5.224449	 0.395017	 2.014677
-0.001405	 0.067892	 1.272140	 0.179833	 5.877313	 1.116745	 13.856870	-12.790580	 177.643200	 2.183800	-15.966860	 0.715761	 3.527664	 70.629360	-3.978858	-2.385832	 28.452790	-0.000001	-7.431026	-10.591830	-178.920200	-1.143757	-11.513590	 0.800154	 2.072451	 68.329700	 5.024106	 2.384659	 28.388700	-0.000001	-15.227260	 9.517041	-0.336092	 0.968470	-7.268446	 0.191521	-2.592714	 14.823270	 0.884189	-90.833970	 66.090900	-177.357100	-3.326807	 4.106854	-38.201590	 12.089400	 1.103173	-6.193474	-12.585730	-31.463910	-10.368040	-2.027600	 6.559038	 9.033609	-5.188889	 0.308190	 3.541030	-5.234859	 0.342567	 0.430617	 4.411764	 25.966610	-8.805464	-6.635481	-19.485880	 1.283179	 88.393950	 62.694190	 176.558100	 2.831167	 14.768750	 14.121380	-15.697010	-3.788902	 37.940320	 6.934817	-29.177350	 8.700671	 1.803333	 3.979147	-15.098590	 4.898592	 3.004813	-9.310344	 5.224449	 0.395017	 2.014677
-0.001938	 0.080962	 1.270887	 0.438448	 7.890114	 1.203777	 13.800900	-16.360550	 178.169900	 2.114629	-17.336220	 0.754683	 5.973191	 70.371040	-6.639442	-2.385833	 28.452760	 0.000004	-8.140109	-13.698680	-179.525900	-1.429113	-11.988920	 0.773176	 0.446760	 67.806630	 7.231952	 2.384659	 28.388700	-0.000001	-19.470270	 10.176380	-0.453959	 1.126210	-6.693992	 0.144416	-2.982460	 15.617530	 1.067762	-91.264080	 65.100360	-178.633000	-1.982668	 5.406208	-41.489170	 7.328547	 1.883500	-7.780908	-15.133040	-33.508670	-13.415900	-2.027600	 6.559038	 9.033609	-5.188889	 0.308190	 3.541030	-5.234859	 0.342567	 0.430617	 3.918101	 26.810860	-8.778975	-6.450401	-20.456070	 1.024688	 88.774240	 61.297660	 177.627400	-0.656874	 16.685770	 16.371200	-12.743710	-1.106135	 40.372830	 7.131853	-30.947580	 10.187720	 1.803333	 3.979147	-15.098590	 4.898592	 3.004813	-9.310344	 5.224449	 0.395017	 2.014677
-0.002646	 0.093415	 1.269066	 0.697358	 9.943234	 1.211606	 13.696770	-19.808060	 178.751400	 2.073143	-18.623930	 0.795542	 8.353338	 70.129350	-9.284792	-2.385833	 28.452760	 0.000004	-8.719260	-17.238350	 179.905700	-1.602433	-13.520090	 0.829503	-1.134857	 67.956920	 9.299900	 2.384659	 28.388700	-0.000001	-22.759730	 10.699750	-0.531177	 1.289232	-5.913950	 0.042588	-3.314455	 15.862650	 1.370605	-91.935520	 64.856480	 179.579500	-1.230161	 6.767022	-43.340360	 4.046041	 2.682762	-9.078397	-17.176410	-34.780050	-15.855400	-2.027600	 6.559038	 9.033609	-5.188889	 0.308190	 3.541030	-5.234859	 0.342567	 0.430617	 3.468097	 26.480370	-8.816536	-6.296848	-20.689970	 0.811275	 89.410830	 60.663940	 179.144400	-3.822930	 18.700780	 18.213130	-10.300670	 1.391051	 42.445880	 7.722876	-32.398220	 11.588420	 1.803333	 3.979147	-15.098590	 4.898592	 3.004813	-9.310344	 5.224449	 0.395017	 2.014677
